<?xml version="1.0" encoding="UTF-8" standalone="no"?>
<!DOCTYPE svg PUBLIC "-//W3C//DTD SVG 1.1//EN"
 "http://www.w3.org/Graphics/SVG/1.1/DTD/svg11.dtd">
<!-- Generated by graphviz version 13.1.2 (20250808.2320)
 -->
<!-- Title: flow Pages: 1 -->
<svg width="947pt" height="751pt"
 viewBox="0.00 0.00 947.00 751.00" xmlns="http://www.w3.org/2000/svg" xmlns:xlink="http://www.w3.org/1999/xlink">
<g id="graph0" class="graph" transform="scale(1 1) rotate(0) translate(4 747.4)">
<title>flow</title>
<polygon fill="white" stroke="none" points="-4,4 -4,-747.4 942.8,-747.4 942.8,4 -4,4"/>
<!-- v0 -->
<g id="node1" class="node">
<title>v0</title>
<ellipse fill="black" stroke="black" cx="375.08" cy="-723.3" rx="3.6" ry="3.6"/>
<text xml:space="preserve" text-anchor="middle" x="321.6" y="-730.1" font-family="Times,serif" font-size="14.00">Channel.fromPath</text>
</g>
<!-- v1 -->
<g id="node2" class="node">
<title>v1</title>
<ellipse fill="none" stroke="black" cx="375.08" cy="-679.1" rx="3.6" ry="3.6"/>
<text xml:space="preserve" text-anchor="middle" x="348.98" y="-685.9" font-family="Times,serif" font-size="14.00">ifEmpty</text>
</g>
<!-- v0&#45;&gt;v1 -->
<g id="edge1" class="edge">
<title>v0&#45;&gt;v1</title>
<path fill="none" stroke="black" d="M375.08,-719.27C375.08,-714.11 375.08,-703.31 375.08,-694.36"/>
<polygon fill="black" stroke="black" points="378.58,-694.4 375.08,-684.4 371.58,-694.4 378.58,-694.4"/>
</g>
<!-- v2 -->
<g id="node3" class="node">
<title>v2</title>
<ellipse fill="none" stroke="black" cx="375.08" cy="-634.9" rx="3.6" ry="3.6"/>
<text xml:space="preserve" text-anchor="middle" x="359.48" y="-641.7" font-family="Times,serif" font-size="14.00">map</text>
</g>
<!-- v1&#45;&gt;v2 -->
<g id="edge2" class="edge">
<title>v1&#45;&gt;v2</title>
<path fill="none" stroke="black" d="M375.08,-675.07C375.08,-669.91 375.08,-659.11 375.08,-650.16"/>
<polygon fill="black" stroke="black" points="378.58,-650.2 375.08,-640.2 371.58,-650.2 378.58,-650.2"/>
</g>
<!-- v3 -->
<g id="node4" class="node">
<title>v3</title>
<ellipse fill="none" stroke="black" cx="191.08" cy="-560.8" rx="191.08" ry="18"/>
<text xml:space="preserve" text-anchor="middle" x="191.08" y="-555.75" font-family="Times,serif" font-size="14.00">assembly_amr_pangenome:NANOPLOT_RAW</text>
</g>
<!-- v2&#45;&gt;v3 -->
<g id="edge3" class="edge">
<title>v2&#45;&gt;v3</title>
<path fill="none" stroke="black" d="M371.88,-632.65C356.93,-626.79 292.57,-601.57 244.88,-582.88"/>
<polygon fill="black" stroke="black" points="246.36,-579.71 235.78,-579.32 243.81,-586.22 246.36,-579.71"/>
<text xml:space="preserve" text-anchor="middle" x="334.96" y="-600" font-family="Times,serif" font-size="14.00">reads</text>
</g>
<!-- v4 -->
<g id="node6" class="node">
<title>v4</title>
<ellipse fill="none" stroke="black" cx="560.08" cy="-560.8" rx="160.37" ry="18"/>
<text xml:space="preserve" text-anchor="middle" x="560.08" y="-555.75" font-family="Times,serif" font-size="14.00">assembly_amr_pangenome:FILTLONG</text>
</g>
<!-- v2&#45;&gt;v4 -->
<g id="edge5" class="edge">
<title>v2&#45;&gt;v4</title>
<path fill="none" stroke="black" d="M378.29,-632.65C393.36,-626.77 458.41,-601.42 506.41,-582.72"/>
<polygon fill="black" stroke="black" points="507.52,-586.04 515.57,-579.15 504.98,-579.52 507.52,-586.04"/>
<text xml:space="preserve" text-anchor="middle" x="481.83" y="-600" font-family="Times,serif" font-size="14.00">reads</text>
</g>
<!-- v13 -->
<g id="node5" class="node">
<title>v13</title>
<ellipse fill="none" stroke="black" cx="283.08" cy="-428.05" rx="3.6" ry="3.6"/>
<text xml:space="preserve" text-anchor="middle" x="267.48" y="-434.85" font-family="Times,serif" font-size="14.00">map</text>
</g>
<!-- v3&#45;&gt;v13 -->
<g id="edge4" class="edge">
<title>v3&#45;&gt;v13</title>
<path fill="none" stroke="black" d="M189.24,-542.62C187.78,-519.72 188.77,-479.18 210.08,-454.3 224.66,-437.27 251.33,-431.71 268.08,-429.91"/>
<polygon fill="black" stroke="black" points="268.1,-433.42 277.82,-429.21 267.6,-426.43 268.1,-433.42"/>
<text xml:space="preserve" text-anchor="middle" x="240.41" y="-511.5" font-family="Times,serif" font-size="14.00">nanoplot_raw_dirs</text>
</g>
<!-- v15 -->
<g id="node16" class="node">
<title>v15</title>
<ellipse fill="none" stroke="black" cx="408.08" cy="-295.3" rx="3.6" ry="3.6"/>
<text xml:space="preserve" text-anchor="middle" x="393.6" y="-302.1" font-family="Times,serif" font-size="14.00">mix</text>
</g>
<!-- v13&#45;&gt;v15 -->
<g id="edge15" class="edge">
<title>v13&#45;&gt;v15</title>
<path fill="none" stroke="black" d="M285.24,-424.78C298.7,-410.71 371.03,-335.04 397.97,-306.87"/>
<polygon fill="black" stroke="black" points="400.42,-309.37 404.8,-299.73 395.36,-304.54 400.42,-309.37"/>
</g>
<!-- v5 -->
<g id="node7" class="node">
<title>v5</title>
<ellipse fill="none" stroke="black" cx="408.08" cy="-472.3" rx="189.03" ry="18"/>
<text xml:space="preserve" text-anchor="middle" x="408.08" y="-467.25" font-family="Times,serif" font-size="14.00">assembly_amr_pangenome:NANOPLOT_FILT</text>
</g>
<!-- v4&#45;&gt;v5 -->
<g id="edge6" class="edge">
<title>v4&#45;&gt;v5</title>
<path fill="none" stroke="black" d="M530.04,-542.71C506.6,-529.37 473.8,-510.7 448.11,-496.09"/>
<polygon fill="black" stroke="black" points="450.04,-493.15 439.62,-491.25 446.58,-499.24 450.04,-493.15"/>
<text xml:space="preserve" text-anchor="middle" x="534.81" y="-511.5" font-family="Times,serif" font-size="14.00">filtered_reads</text>
</g>
<!-- v6 -->
<g id="node9" class="node">
<title>v6</title>
<ellipse fill="none" stroke="black" cx="753.08" cy="-472.3" rx="137.85" ry="18"/>
<text xml:space="preserve" text-anchor="middle" x="753.08" y="-467.25" font-family="Times,serif" font-size="14.00">assembly_amr_pangenome:FLYE</text>
</g>
<!-- v4&#45;&gt;v6 -->
<g id="edge8" class="edge">
<title>v4&#45;&gt;v6</title>
<path fill="none" stroke="black" d="M597.75,-542.92C628.53,-529.12 672.23,-509.53 705.44,-494.65"/>
<polygon fill="black" stroke="black" points="706.75,-497.9 714.45,-490.61 703.89,-491.51 706.75,-497.9"/>
<text xml:space="preserve" text-anchor="middle" x="710.99" y="-511.5" font-family="Times,serif" font-size="14.00">filtered_reads</text>
</g>
<!-- v14 -->
<g id="node8" class="node">
<title>v14</title>
<ellipse fill="none" stroke="black" cx="408.08" cy="-383.8" rx="3.6" ry="3.6"/>
<text xml:space="preserve" text-anchor="middle" x="392.48" y="-390.6" font-family="Times,serif" font-size="14.00">map</text>
</g>
<!-- v5&#45;&gt;v14 -->
<g id="edge7" class="edge">
<title>v5&#45;&gt;v14</title>
<path fill="none" stroke="black" d="M408.08,-454.21C408.08,-438.09 408.08,-414.21 408.08,-399.08"/>
<polygon fill="black" stroke="black" points="411.58,-399.31 408.08,-389.31 404.58,-399.31 411.58,-399.31"/>
<text xml:space="preserve" text-anchor="middle" x="456.45" y="-423" font-family="Times,serif" font-size="14.00">nanoplot_filt_dirs</text>
</g>
<!-- v14&#45;&gt;v15 -->
<g id="edge16" class="edge">
<title>v14&#45;&gt;v15</title>
<path fill="none" stroke="black" d="M408.08,-379.92C408.08,-369.25 408.08,-331.49 408.08,-310.55"/>
<polygon fill="black" stroke="black" points="411.58,-310.79 408.08,-300.79 404.58,-310.79 411.58,-310.79"/>
</g>
<!-- v7 -->
<g id="node10" class="node">
<title>v7</title>
<ellipse fill="none" stroke="black" cx="645.08" cy="-383.8" rx="160.37" ry="18"/>
<text xml:space="preserve" text-anchor="middle" x="645.08" y="-378.75" font-family="Times,serif" font-size="14.00">assembly_amr_pangenome:ABRICATE</text>
</g>
<!-- v6&#45;&gt;v7 -->
<g id="edge9" class="edge">
<title>v6&#45;&gt;v7</title>
<path fill="none" stroke="black" d="M731.74,-454.21C715.61,-441.3 693.27,-423.4 675.31,-409.01"/>
<polygon fill="black" stroke="black" points="677.54,-406.32 667.55,-402.8 673.17,-411.78 677.54,-406.32"/>
<text xml:space="preserve" text-anchor="middle" x="738.37" y="-423" font-family="Times,serif" font-size="14.00">assemblies</text>
</g>
<!-- v9 -->
<g id="node11" class="node">
<title>v9</title>
<ellipse fill="none" stroke="black" cx="741.08" cy="-295.3" rx="183.91" ry="18"/>
<text xml:space="preserve" text-anchor="middle" x="741.08" y="-290.25" font-family="Times,serif" font-size="14.00">assembly_amr_pangenome:ABRICATE_TAG</text>
</g>
<!-- v7&#45;&gt;v9 -->
<g id="edge10" class="edge">
<title>v7&#45;&gt;v9</title>
<path fill="none" stroke="black" d="M693.43,-366.17C702.77,-361.33 711.88,-355.27 719.08,-347.8 725.45,-341.18 730.12,-332.42 733.47,-324.01"/>
<polygon fill="black" stroke="black" points="736.7,-325.38 736.66,-314.79 730.08,-323.1 736.7,-325.38"/>
<text xml:space="preserve" text-anchor="middle" x="786.39" y="-334.5" font-family="Times,serif" font-size="14.00">abricate_per_sample</text>
</g>
<!-- v8 -->
<g id="node12" class="node">
<title>v8</title>
<ellipse fill="black" stroke="black" cx="481.08" cy="-295.3" rx="1.8" ry="1.8"/>
</g>
<!-- v7&#45;&gt;v8 -->
<g id="edge11" class="edge">
<title>v7&#45;&gt;v8</title>
<path fill="none" stroke="black" d="M534.16,-370.45C508.39,-365.23 486.06,-357.93 477.83,-347.8 468.71,-336.58 472.37,-319.05 476.33,-307.62"/>
<polygon fill="black" stroke="black" points="479.5,-309.13 480.07,-298.55 473.02,-306.46 479.5,-309.13"/>
<text xml:space="preserve" text-anchor="middle" x="528.45" y="-334.5" font-family="Times,serif" font-size="14.00">abricate_summary</text>
</g>
<!-- v16 -->
<g id="node18" class="node">
<title>v16</title>
<ellipse fill="none" stroke="black" cx="524.08" cy="-295.3" rx="3.6" ry="3.6"/>
<text xml:space="preserve" text-anchor="middle" x="508.48" y="-302.1" font-family="Times,serif" font-size="14.00">map</text>
</g>
<!-- v7&#45;&gt;v16 -->
<g id="edge18" class="edge">
<title>v7&#45;&gt;v16</title>
<path fill="none" stroke="black" d="M624.28,-365.77C617.36,-360.07 609.62,-353.68 602.58,-347.8 593.86,-340.52 592.52,-337.6 583.08,-331.3 568.53,-321.59 563.03,-322.38 548.08,-313.3 543.84,-310.73 539.38,-307.67 535.46,-304.86"/>
<polygon fill="black" stroke="black" points="537.84,-302.27 527.73,-299.11 533.67,-307.89 537.84,-302.27"/>
<text xml:space="preserve" text-anchor="middle" x="658.83" y="-334.5" font-family="Times,serif" font-size="14.00">abricate_per_sample</text>
</g>
<!-- v10 -->
<g id="node13" class="node">
<title>v10</title>
<ellipse fill="none" stroke="black" cx="741.08" cy="-236.7" rx="3.6" ry="3.6"/>
<text xml:space="preserve" text-anchor="middle" x="719.48" y="-243.5" font-family="Times,serif" font-size="14.00">collect</text>
</g>
<!-- v9&#45;&gt;v10 -->
<g id="edge12" class="edge">
<title>v9&#45;&gt;v10</title>
<path fill="none" stroke="black" d="M741.08,-277.01C741.08,-268.98 741.08,-259.56 741.08,-251.95"/>
<polygon fill="black" stroke="black" points="744.58,-252.17 741.08,-242.17 737.58,-252.17 744.58,-252.17"/>
</g>
<!-- v11 -->
<g id="node14" class="node">
<title>v11</title>
<ellipse fill="none" stroke="black" cx="741.08" cy="-162.6" rx="197.73" ry="18"/>
<text xml:space="preserve" text-anchor="middle" x="741.08" y="-157.55" font-family="Times,serif" font-size="14.00">assembly_amr_pangenome:MERGE_ABRICATE</text>
</g>
<!-- v10&#45;&gt;v11 -->
<g id="edge13" class="edge">
<title>v10&#45;&gt;v11</title>
<path fill="none" stroke="black" d="M741.08,-232.6C741.08,-225.6 741.08,-207.94 741.08,-192.24"/>
<polygon fill="black" stroke="black" points="744.58,-192.34 741.08,-182.34 737.58,-192.34 744.58,-192.34"/>
<text xml:space="preserve" text-anchor="middle" x="761.7" y="-201.8" font-family="Times,serif" font-size="14.00">abri_all</text>
</g>
<!-- v12 -->
<g id="node15" class="node">
<title>v12</title>
<ellipse fill="black" stroke="black" cx="741.08" cy="-74.1" rx="1.8" ry="1.8"/>
</g>
<!-- v11&#45;&gt;v12 -->
<g id="edge14" class="edge">
<title>v11&#45;&gt;v12</title>
<path fill="none" stroke="black" d="M741.08,-144.51C741.08,-127.73 741.08,-102.54 741.08,-87.57"/>
<polygon fill="black" stroke="black" points="744.58,-87.73 741.08,-77.73 737.58,-87.73 744.58,-87.73"/>
<text xml:space="preserve" text-anchor="middle" x="797.7" y="-113.3" font-family="Times,serif" font-size="14.00">abricate_merged_tsv</text>
</g>
<!-- v17 -->
<g id="node17" class="node">
<title>v17</title>
<ellipse fill="none" stroke="black" cx="491.08" cy="-236.7" rx="3.6" ry="3.6"/>
<text xml:space="preserve" text-anchor="middle" x="476.6" y="-243.5" font-family="Times,serif" font-size="14.00">mix</text>
</g>
<!-- v15&#45;&gt;v17 -->
<g id="edge17" class="edge">
<title>v15&#45;&gt;v17</title>
<path fill="none" stroke="black" d="M410.84,-292.42C421.37,-285.24 459.39,-259.31 479.07,-245.89"/>
<polygon fill="black" stroke="black" points="481.01,-248.8 487.3,-240.27 477.07,-243.02 481.01,-248.8"/>
</g>
<!-- v18 -->
<g id="node19" class="node">
<title>v18</title>
<ellipse fill="none" stroke="black" cx="491.08" cy="-162.6" rx="3.6" ry="3.6"/>
<text xml:space="preserve" text-anchor="middle" x="469.48" y="-169.4" font-family="Times,serif" font-size="14.00">collect</text>
</g>
<!-- v17&#45;&gt;v18 -->
<g id="edge20" class="edge">
<title>v17&#45;&gt;v18</title>
<path fill="none" stroke="black" d="M491.08,-232.6C491.08,-223.34 491.08,-195.41 491.08,-178.06"/>
<polygon fill="black" stroke="black" points="494.58,-178.12 491.08,-168.12 487.58,-178.12 494.58,-178.12"/>
</g>
<!-- v16&#45;&gt;v17 -->
<g id="edge19" class="edge">
<title>v16&#45;&gt;v17</title>
<path fill="none" stroke="black" d="M522.48,-291.57C518.19,-284.2 506.14,-263.54 498.28,-250.05"/>
<polygon fill="black" stroke="black" points="501.4,-248.46 493.34,-241.58 495.35,-251.98 501.4,-248.46"/>
</g>
<!-- v19 -->
<g id="node20" class="node">
<title>v19</title>
<ellipse fill="none" stroke="black" cx="491.08" cy="-74.1" rx="157.81" ry="18"/>
<text xml:space="preserve" text-anchor="middle" x="491.08" y="-69.05" font-family="Times,serif" font-size="14.00">assembly_amr_pangenome:MULTIQC</text>
</g>
<!-- v18&#45;&gt;v19 -->
<g id="edge21" class="edge">
<title>v18&#45;&gt;v19</title>
<path fill="none" stroke="black" d="M491.08,-158.72C491.08,-150.24 491.08,-124.66 491.08,-104"/>
<polygon fill="black" stroke="black" points="494.58,-104.09 491.08,-94.09 487.58,-104.09 494.58,-104.09"/>
<text xml:space="preserve" text-anchor="middle" x="522.95" y="-113.3" font-family="Times,serif" font-size="14.00">mqc_inputs</text>
</g>
<!-- v21 -->
<g id="node21" class="node">
<title>v21</title>
<ellipse fill="black" stroke="black" cx="443.08" cy="-1.8" rx="1.8" ry="1.8"/>
</g>
<!-- v19&#45;&gt;v21 -->
<g id="edge22" class="edge">
<title>v19&#45;&gt;v21</title>
<path fill="none" stroke="black" d="M459.82,-56.08C453.53,-51.14 447.74,-45.14 444.08,-38.1 440.43,-31.09 440.2,-22.19 440.87,-15.08"/>
<polygon fill="black" stroke="black" points="444.28,-15.93 442.51,-5.48 437.38,-14.75 444.28,-15.93"/>
<text xml:space="preserve" text-anchor="middle" x="484.58" y="-24.8" font-family="Times,serif" font-size="14.00">multiqc_report</text>
</g>
<!-- v20 -->
<g id="node22" class="node">
<title>v20</title>
<ellipse fill="black" stroke="black" cx="539.08" cy="-1.8" rx="1.8" ry="1.8"/>
</g>
<!-- v19&#45;&gt;v20 -->
<g id="edge23" class="edge">
<title>v19&#45;&gt;v20</title>
<path fill="none" stroke="black" d="M510.55,-55.75C515.74,-50.45 521.03,-44.36 525.08,-38.1 529.69,-30.96 533.21,-22.06 535.56,-14.99"/>
<polygon fill="black" stroke="black" points="538.91,-16.01 538.36,-5.43 532.19,-14.04 538.91,-16.01"/>
</g>
</g>
</svg>
